<?xml version="1.0" encoding="utf-8"?>
<!-- Generator: Adobe Illustrator 18.1.1, SVG Export Plug-In . SVG Version: 6.00 Build 0)  -->
<svg version="1.0" id="Layer_1" xmlns="http://www.w3.org/2000/svg" xmlns:xlink="http://www.w3.org/1999/xlink" x="0px" y="0px"
	 viewBox="0 0 174 130" enable-background="new 0 0 174 130" xml:space="preserve">
<g>
	<path fill="#57A0D3" d="M6.7,102.5c-3.4,0-6.2-2.8-6.2-6.2V39.6c0-4.4,3.6-8,8-8H12c0.4,0,0.9-0.2,1.1-0.6l4.2-6.3
		c1.5-2.2,4-3.5,6.6-3.5h13.6c2.7,0,5.1,1.3,6.6,3.5l4.2,6.3c0.2,0.4,0.7,0.6,1.1,0.6h50.8c4.4,0,8,3.6,8,8v56.6
		c0,3.4-2.8,6.2-6.2,6.2H6.7z"/>
	<path fill="#EDF6FA" d="M45.7,32.9l-4.2-6.3c-0.9-1.3-2.3-2.1-3.9-2.1H23.9c-1.6,0-3,0.8-3.9,2.1l-4.2,6.3
		c-0.9,1.3-2.3,2.1-3.9,2.1H8.6c-2.6,0-4.7,2.1-4.7,4.7v56.6c0,1.6,1.3,2.9,2.9,2.9h95.5c1.6,0,2.9-1.3,2.9-2.9V39.6
		c0-2.6-2.1-4.7-4.7-4.7H49.5C48,34.9,46.5,34.1,45.7,32.9z"/>
	<path fill="#99C6E3" d="M44.7,15.8L24.6,28.2c-2.8,1.7-3.6,5.3-1.9,8.1l30.6,49.4c1.7,2.8,5.3,3.6,8.1,1.9l33.7-20.9
		c2.8-1.7,3.6-5.3,1.9-8.1L74.8,22.9c-0.4-0.7-1.1-1.2-1.9-1.4L47,15.4C46.3,15.2,45.4,15.4,44.7,15.8z"/>
	<path fill="#034E80" d="M72.9,21.5L47,15.4c-0.8-0.2-1.6-0.1-2.3,0.4L24.6,28.2c-2.8,1.7-3.6,5.3-1.9,8.1l30.6,49.4
		c1.7,2.8,5.3,3.6,8.1,1.9l33.7-20.9c2.8-1.7,3.6-5.3,1.9-8.1L74.8,22.9C74.4,22.2,73.7,21.7,72.9,21.5z M94.7,60.1
		c0.9,1.5,0.5,3.5-1,4.4L60,85.4c-1.5,0.9-3.5,0.5-4.4-1L25,34.9c-0.9-1.5-0.5-3.5,1-4.4l19.6-12.1l8,12.9c1.3,2.2,4.2,2.8,6.3,1.5
		l12.9-8L94.7,60.1z"/>
	<path fill="#CCE2F0" d="M58.9,5.4l-22.7,6.6c-3.1,0.9-4.9,4.2-4,7.3L48.3,75c0.9,3.1,4.2,4.9,7.3,4l38.1-11c3.1-0.9,4.9-4.2,4-7.3
		L86,20.3c-0.2-0.8-0.8-1.4-1.5-1.8L61.2,5.6C60.5,5.2,59.7,5.1,58.9,5.4z"/>
	<path fill="#034E80" d="M84.5,18.5L61.2,5.6c-0.7-0.4-1.6-0.5-2.3-0.3l-22.7,6.6c-3.1,0.9-4.9,4.2-4,7.3L48.3,75
		c0.9,3.1,4.2,4.9,7.3,4l38.1-11c3.1-0.9,4.9-4.2,4-7.3L86,20.3C85.7,19.5,85.2,18.9,84.5,18.5z M95.1,61.5c0.5,1.7-0.5,3.5-2.2,4
		l-38.1,11c-1.7,0.5-3.5-0.5-4-2.2L34.8,18.5c-0.5-1.7,0.5-3.5,2.2-4L59,8.1l4.2,14.6c0.7,2.4,3.3,3.9,5.7,3.1l14.6-4.2L95.1,61.5z"
		/>
	<path fill="#FFFFFF" d="M79.8,0.9H56.2c-3.3,0-5.9,2.6-5.9,5.9v58.1c0,3.3,2.6,5.9,5.9,5.9h39.6c3.3,0,5.9-2.6,5.9-5.9V22.8
		c0-0.8-0.3-1.6-0.9-2.2L82,1.8C81.4,1.2,80.6,0.9,79.8,0.9z"/>
	<path fill="#034E80" d="M100.8,20.6L82,1.8c-0.6-0.6-1.4-0.9-2.2-0.9H56.2c-3.3,0-5.9,2.6-5.9,5.9v58.1c0,3.3,2.6,5.9,5.9,5.9h39.6
		c3.3,0,5.9-2.6,5.9-5.9V22.8C101.7,21.9,101.4,21.2,100.8,20.6z M99,64.9c0,1.8-1.4,3.2-3.2,3.2H56.2c-1.8,0-3.2-1.4-3.2-3.2V6.8
		c0-1.8,1.4-3.2,3.2-3.2h23v15.2c0,2.5,2.1,4.6,4.6,4.6H99V64.9z"/>
	<path fill="#CCE2F0" d="M62.3,35.8c0,1.3-1,2.3-2.3,2.3s-2.3-1-2.3-2.3c0-1.3,1-2.3,2.3-2.3S62.3,34.6,62.3,35.8z M69.2,38.2h22.9
		c1.3,0,2.3-1,2.3-2.3c0-1.3-1-2.3-2.3-2.3H69.2c-1.3,0-2.3,1-2.3,2.3C66.9,37.1,67.9,38.2,69.2,38.2z M59.9,42.8
		c-1.3,0-2.3,1-2.3,2.3c0,1.3,1,2.3,2.3,2.3s2.3-1,2.3-2.3C62.2,43.8,61.2,42.8,59.9,42.8z M92,42.8H69.1c-1.3,0-2.3,1-2.3,2.3
		c0,1.3,1,2.3,2.3,2.3H92c1.3,0,2.3-1,2.3-2.3C94.4,43.8,93.3,42.8,92,42.8z M59.8,52.1c-1.3,0-2.3,1-2.3,2.3c0,1.3,1,2.3,2.3,2.3
		c1.3,0,2.3-1,2.3-2.3C62.1,53.1,61.1,52.1,59.8,52.1z M92,52.1H69.1c-1.3,0-2.3,1-2.3,2.3c0,1.3,1,2.3,2.3,2.3H92
		c1.3,0,2.3-1,2.3-2.3C94.3,53.1,93.3,52.1,92,52.1z"/>
	<path fill="#57A0D3" d="M29,50.5h97c3,0,4.9,3,3.6,5.6l-22.4,44.2c-0.7,1.3-2.1,2.2-3.6,2.2h-97c-3,0-4.9-3-3.6-5.6l22.4-44.2
		C26.1,51.4,27.5,50.5,29,50.5z"/>
	<path fill="#034E80" d="M173.2,87.1c0,0-2.6,10-3,12.5c-0.4,2.5-1.9,2.5-1.9,2.5l-4.7,1l-1.1,0.1c0.2-4.6,0.3-10.5,0.2-14.8
		c-0.2-6.6-3.5-8.1-5.5-9l-0.2-0.1l-0.1,0l-0.1,0c-6.8-2.2-12.9-4-18.3-5.4c0.8-0.2,1.4-0.3,1.7-0.3c0.9-0.2,1.9,0,1.9,0
		s24.7,6.3,26.3,6.6c1.5,0.3,2.9,0.3,4.3,2.4C174.1,84.6,173.2,87.1,173.2,87.1z"/>
	<path fill="#034E80" d="M160.5,108.5c-0.3,3.5-1.6,3.9-4.6,4.6c-2.9,0.7-7,1.5-7,1.5s-1.4,0.5-4.4,0.4c-6,1.2-6.2,1.3-6.3,0.8
		c-6.9,1.5-6.9,1.5-6.9,1.5s0.1,0.5-1.7,0.9c-1.8,0.4-45.8,10.3-45.8,10.3s-3.2,1.8-5.8-0.7c-0.8-0.8-1.1-1.2-3.8-2.1
		c-4.9-1.7-6-1.9-6-2.9c-5-2.7-5-2.7-5-2.7s-2.4,0.3-5.5-4.1c0,0-2.3,0.1-3.4-3.3c-0.7-3.7-1.1-7.2-1.3-10
		c-0.2-2.8-1.1-10.9-0.6-16.5c0.2-1.7,1.3-2.9,3.1-2.9c10-1.6,43.2-6.5,43.2-6.5s1.6-0.3,2.5,0c0.9,0.3,1.6,0.4,1.6,0.4l3.5-0.6
		c0,0,0.5-1.7,3.1-1.5c2.7-0.6,13.1-2.3,13.1-2.3s1.5-0.3,2.4-0.1c0.9,0.2,9.3,0.8,31.2,8c2,0.9,4.8,1.9,4.9,8
		C161.3,94.9,161,104.5,160.5,108.5z"/>
	<path fill="#57A0D3" d="M144.3,101.4c0-0.2-0.2-0.6-1-0.4c-0.9,0.2-9.2,1.8-9.2,1.8s-1.1,0-1.1,1.5c0,1.5-0.1,8-0.1,8
		s-0.1,1.1,1.3,0.8c1.4-0.3,9-2.1,9-2.1s0.9-0.2,0.9-1c0-0.8-0.7-0.5-0.7-1.6c0-1.1,0.2-5,0.2-5s0.1-0.7,0.5-1
		C144.5,102.1,144.3,101.6,144.3,101.4z"/>
	<path fill="#EDF6FA" d="M81.5,104.7c-0.3-4.9-1.5-6.7-2.3-7.5c-0.8-0.7-2.3-1.2-2.9-1.4l-16.6,18.6c8.1,6.4,14.5,8,16,8.4
		c1.5,0.4,2.2,0.9,2.5,1.3c0.2,0.4,0.4,1.1,2,1.5c1.6,0.4,1.7-0.3,1.9-1.7c0.1-2.8-0.1-11.6-0.1-11.6S81.8,109.6,81.5,104.7z"/>
	<path fill="#FFFFFF" d="M76.2,95.8c-0.6-0.3-0.8,0-1.3,0.1c-0.7,0.3-1.5,0-1.5,0s-5.9-2-6.4-2.2c-0.6-0.2-0.5-0.6-0.5-0.6v-0.3
		l-5-2.1c0,0-0.1,0-0.9,0c-0.8,0-1.2-0.3-1.2-0.3s-0.1,0-2.7-1.4c-2.7-1.4-2.1-1.7-2.2-2.1c-0.5,0.1-0.7,0.3-0.6,1.6
		c0.4,16,1.2,20.6,1.3,21.6c0.1,0.9,1.1,3,1.8,2.9c0.7,0,1.1,0,1.9,0.7c0.3,0.2,0.5,0.4,0.8,0.6L76.2,95.8
		C76.3,95.8,76.2,95.8,76.2,95.8z"/>
	<path fill="#57A0D3" d="M95.3,102.3c0.1,0.9,1.6,7.1,0.7,15.9c-0.2,1.4-0.8,1.7-2.2,2c-1.4,0.4-2.9,0.9-2.9-0.7c0,0,0.3-9-0.9-14.8
		c-0.2-2.2,0.2-2.2,1.7-2.6C93.2,101.7,95.2,101.4,95.3,102.3z M100.5,100.4c-1.4,0.4-1.8,0.4-1.7,2.6c1.2,5.8,0.9,14.8,0.9,14.8
		c0,1.5,1.5,1,2.9,0.7c1.4-0.4,2-0.6,2.2-2c0.9-8.7-0.6-14.9-0.7-15.9C103.9,99.7,101.9,100,100.5,100.4z M112.7,99.1
		c-0.1-0.9-2.1-0.6-3.6-0.2c-1.4,0.4-1.8,0.4-1.7,2.6c1.2,5.8,0.9,14.8,0.9,14.8c0,1.5,1.5,1,2.8,0.7c1.3-0.4,2-0.6,2.2-2
		C114.3,106.2,112.8,100,112.7,99.1z"/>
</g>
</svg>
