<?xml version="1.0" encoding="UTF-8" standalone="no"?>
<svg
   xmlns:dc="http://purl.org/dc/elements/1.1/"
   xmlns:cc="http://creativecommons.org/ns#"
   xmlns:rdf="http://www.w3.org/1999/02/22-rdf-syntax-ns#"
   xmlns:svg="http://www.w3.org/2000/svg"
   xmlns="http://www.w3.org/2000/svg"
   xmlns:xlink="http://www.w3.org/1999/xlink"
   id="svg2"
   version="1.1"
   width="198"
   height="73"
   viewBox="0 0 198 73">
  <metadata
     id="metadata28">
    <rdf:RDF>
      <cc:Work
         rdf:about="">
        <dc:format>image/svg+xml</dc:format>
        <dc:type
           rdf:resource="http://purl.org/dc/dcmitype/StillImage" />
        <dc:title></dc:title>
      </cc:Work>
    </rdf:RDF>
  </metadata>
  <defs
     id="defs26" />
  <use
     id="use4"
     style="opacity:0.15"
     height="100%"
     width="100%"
     transform="matrix(1,0,0,-1,0,72.357422)"
     xlink:href="#g8"
     y="0"
     x="0" />
  <path
     id="path6"
     style="stroke:#2b5e82"
     d="m 0,36.5 198,0" />
  <g
     id="g8"
     style="font-family:'Myriad Set Pro';fill:#2b5e82">
    <path
       id="path10"
       d="m 23.687683,2.0125001 c -3.353034,0 -6.337775,0.2370174 -8.955078,0.7128906 l -0.205078,0.037109 0,34.1250003 5.916016,0 0,-13.15747 c 0.757655,0.08079 1.658083,0.09765 2.888672,0.09765 4.63473,0 8.335004,-1.110438 10.792236,-3.626159 1.899384,-1.944594 2.855468,-4.575212 2.855468,-7.763245 0,-3.1611593 -1.079085,-5.9091504 -3.280561,-7.7987287 C 31.497881,2.7499736 28.043491,2.0125001 23.687683,2.0125001 Z m 5.40825,5.9149764 c 1.216428,1.0077032 1.902147,2.8271295 1.902147,4.7647085 0,2.037392 -0.728087,3.853749 -2.056397,4.987671 -1.328787,1.134331 -3.169103,2.047119 -5.558593,2.047119 -1.258083,0 -2.215328,-0.238581 -2.939453,-0.47876 l 0,-12.7592166 c 0.899083,-0.176319 2.019305,-0.3603512 3.445265,-0.36035 2.255737,1.9e-6 3.97078,0.7747036 5.207031,1.7988281 z" />
    <path
       id="path12"
       d="m 43.367286,14.506858 c -2.24778,2.470731 -3.354515,5.672518 -3.354515,9.534203 0,3.693611 1.083936,6.785194 3.27114,9.231712 2.187204,2.446519 5.335996,3.674585 9.002542,3.674585 3.801805,0 7.067891,-1.279705 9.322949,-3.793969 2.255058,-2.514264 3.356983,-5.689005 3.356983,-9.516624 0,-3.726151 -1.066883,-6.802257 -3.255947,-9.214295 -2.189064,-2.412037 -5.353189,-3.641174 -9.019688,-3.641197 -3.800258,-2.4e-5 -7.057198,1.234534 -9.323464,3.725585 z m 9.071557,18.109296 c -2.049531,0 -3.779059,-1.133247 -4.926026,-3.033935 -0.952127,-1.575934 -1.431641,-3.468179 -1.431641,-5.693359 0,-2.293726 0.491693,-4.211529 1.432641,-5.794969 1.124778,-1.892793 2.856463,-3.051805 4.97583,-3.051852 2.049507,-4.7e-5 3.746444,1.157126 4.872315,3.051758 0.941732,1.584761 1.432641,3.470179 1.432641,5.69536 0,2.223936 -0.5067,4.122333 -1.481469,5.742234 -1.161489,1.930199 -2.861092,3.084763 -4.874291,3.084763 z" />
    <path
       id="path14"
       d="m 84.169311,10.781249 c -3.587529,-1e-6 -6.546716,1.000497 -8.026367,3.233154 l -0.450195,-3.011963 -5.373047,0 c 0.139245,1.596444 0.285155,2.535786 0.285155,4.20459 l 0,31.474 5.96875,0 0,-12.410035 c 1.538817,2.007063 3.772745,2.67627 6.837891,2.67627 3.063675,0 6.066117,-1.113364 8.254713,-3.458061 2.188596,-2.344696 3.337572,-5.724069 3.337572,-9.954096 0,-3.788712 -0.994201,-6.876802 -2.976737,-9.221105 -1.982535,-2.344302 -4.890299,-3.532754 -7.857735,-3.532754 z m -5.308546,5.956328 c 1.075435,-0.879902 2.243359,-1.653321 3.851937,-1.653274 1.608578,4.7e-5 3.526007,1.090488 4.650457,2.668992 1.061506,1.490142 1.572265,3.628115 1.572265,5.984986 0,2.561954 -0.564328,4.834445 -1.673828,6.368165 -1.105885,1.528723 -3.02157,2.492919 -5.016113,2.492919 -1.697307,0 -3.065263,-0.777017 -4.117187,-1.959716 -1.056057,-1.187346 -1.554688,-2.88823 -1.554688,-4.624024 l 0,-4.101562 c 0,-0.406699 0.08608,-0.94488 0.245141,-1.611376 0.335305,-1.404978 1.004474,-2.722109 2.042016,-3.56511 z" />
    <use
       id="use16"
       x="0"
       y="0"
       xlink:href="#path14"
       transform="translate(28.963743,-2.3500697e-5)"
       width="100%"
       height="100%" />
    <path
       id="path18"
       d="m 153.78325,36.84575 c 3.1991,0 6.17363,-0.595612 8.542,-1.621093 l 0.18945,-0.08203 -1.24316,-3.929443 -0.26954,0.105469 c -1.95821,0.766233 -4.0556,1.277161 -6.45898,1.277161 -2.14907,0 -4.13855,-0.557164 -5.50604,-1.702046 -1.36748,-1.144882 -2.08812,-2.856064 -2.20629,-5.089017 l 16.57361,0 0.041,-0.201172 c 0.14211,-0.697273 0.20703,-1.539053 0.20703,-2.529297 0,-3.110627 -0.73681,-6.147604 -2.2207,-8.287171 -1.86566,-2.694849 -4.6502,-4.05664 -8.28903,-4.056641 -3.63882,-1e-6 -6.79069,1.354694 -8.96041,4.041014 -2.06298,2.511001 -3.16596,6.184054 -3.16596,9.940979 0,4.262678 1.15712,6.821085 3.38376,9.116723 2.22812,2.297162 5.52084,3.016564 9.38326,3.016564 z m -0.9251,-21.81843 c 1.80618,2.3e-5 3.14987,1.107623 4.05396,2.560631 0.67455,1.073154 0.99165,2.678191 1,4.146607 l -10.80273,0 c 0.19594,-1.487024 0.68698,-3.099166 1.50685,-4.178857 1.08458,-1.428284 2.43573,-2.528405 4.24192,-2.528381 z" />
    <rect
       id="rect20"
       style="fill:#2b5e82"
       width="5.96875"
       height="36.392578"
       x="129.43164"
       y="0" />
    <path
       id="path22"
       d="m 174.51935,11.003151 -5.33398,0 c 0.12906,1.47618 0.29189,2.642079 0.28904,3.850403 l -0.0508,21.53711 5.96679,0 0,-13.160156 c 0,-1.917977 0.43983,-3.482902 1.32032,-4.712891 0.99907,-1.395641 2.39108,-2.529622 4.25195,-2.523437 0.72669,0.0024 1.28789,-0.002 1.9707,-0.002 l 0,-4.996826 c -0.57228,0 -1.14656,0.0053 -1.61707,0.0053 -1.46549,0 -2.85845,-0.04779 -4.09764,0.883059 -1.13714,0.85419 -1.78654,1.271739 -2.51572,2.241217 z" />
  </g>
</svg>
