<?xml version="1.0" encoding="UTF-8" standalone="no"?>
<svg xmlns="http://www.w3.org/2000/svg" xmlns:xlink="http://www.w3.org/1999/xlink" width="128" height="128">
  <radialGradient id="e" cx="93.295" cy="69.384" r="58.168" fx="93.808" fy="67.5" gradientUnits="userSpaceOnUse">
    <stop offset="0" stop-color="#fff"/>
    <stop offset="1" stop-color="#727272"/>
  </radialGradient>
  <linearGradient id="a">
    <stop offset="0" stop-color="#ccc"/>
    <stop offset="1" stop-color="#828282"/>
  </linearGradient>
  <linearGradient id="f" x1="22.154" x2="95.11" y1="100.292" y2="98.177" gradientUnits="userSpaceOnUse" xlink:href="#a"/>
  <linearGradient id="h" x1="1917.8" x2="12604.2" y1="-1726.93" y2="-1685.09" gradientUnits="userSpaceOnUse" xlink:href="#a"/>
  <linearGradient id="b">
    <stop offset="0" stop-color="#fff"/>
    <stop offset=".258" stop-color="#efefef"/>
    <stop offset=".74" stop-color="#cdcdcd"/>
    <stop offset=".859" stop-color="#c3c3c3"/>
  </linearGradient>
  <linearGradient id="i" x1="102.901" x2="43.257" y1="89.269" y2="89.269" gradientUnits="userSpaceOnUse" xlink:href="#b"/>
  <linearGradient id="c">
    <stop offset="0" stop-color="#b3b3b3"/>
    <stop offset="1" stop-color="#626262"/>
  </linearGradient>
  <linearGradient id="j" x1="2.981" x2="121.086" y1="84.739" y2="84.739" gradientUnits="userSpaceOnUse" xlink:href="#c"/>
  <linearGradient id="k" x1="1917.8" x2="12604.2" y1="-1749.14" y2="-1707.29" gradientUnits="userSpaceOnUse" xlink:href="#a"/>
  <linearGradient id="l" x1="102.901" x2="43.257" y1="67.064" y2="67.064" gradientUnits="userSpaceOnUse" xlink:href="#b"/>
  <linearGradient id="m" x1="2.981" x2="121.086" y1="62.534" y2="62.534" gradientUnits="userSpaceOnUse" xlink:href="#c"/>
  <linearGradient id="n" x1="1917.8" x2="12604.2" y1="-1769.83" y2="-1727.98" gradientUnits="userSpaceOnUse" xlink:href="#a"/>
  <linearGradient id="o" x1="102.901" x2="43.257" y1="46.373" y2="46.373" gradientUnits="userSpaceOnUse" xlink:href="#b"/>
  <linearGradient id="p" x1="2.981" x2="121.086" y1="41.843" y2="41.843" gradientUnits="userSpaceOnUse" xlink:href="#c"/>
  <linearGradient id="d">
    <stop offset=".057" stop-color="#fff"/>
    <stop offset="1" stop-color="#fff" stop-opacity=".167"/>
  </linearGradient>
  <linearGradient id="q" x1="21.93" x2="21.93" y1="92.909" y2="52.759" gradientUnits="userSpaceOnUse" xlink:href="#d"/>
  <linearGradient id="r" x1="116.884" x2="67.76" y1="26.298" y2="75.733" gradientUnits="userSpaceOnUse" xlink:href="#c"/>
  <linearGradient id="s" x1="46.825" x2="46.825" y1="93.993" y2="23.685" gradientUnits="userSpaceOnUse">
    <stop offset=".011" stop-color="#0089ff"/>
    <stop offset="1" stop-color="#000095"/>
  </linearGradient>
  <radialGradient id="g" cx="98.858" cy="96.542" r="60.128" gradientUnits="userSpaceOnUse" xlink:href="#a"/>
  <linearGradient id="t" x1="87.855" x2="44.095" y1="7.159" y2="80.036" gradientUnits="userSpaceOnUse">
    <stop offset="0" stop-color="#3affff"/>
    <stop offset=".405" stop-color="#00b0ff"/>
    <stop offset="1" stop-color="#0030ff"/>
  </linearGradient>
  <linearGradient id="u" x1="45.883" x2="46.107" y1="85.16" y2="48.511" gradientUnits="userSpaceOnUse" xlink:href="#d"/>
  <g fill-rule="evenodd" transform="matrix(1 0 0 -1 0 128)">
    <path fill-opacity=".306" d="m63.391725 124.24121c-32.4917 0-58.8866901-9.084-58.8866901-20.257 0-6.580297 0-60.228197 0-66.810097 0-11.1727 26.3949901-20.2561 58.8866901-20.2561s58.848795 9.0834 58.848795 20.2561v66.810097c0 11.173-26.357095 20.257-58.848795 20.257z"/>
    <path fill="url(#e)" d="m62.0399 125.406c-31.8294 0-57.68639-8.899-57.68639-19.844 0-6.4463 0-59.0007 0-65.4485 0-10.9449 25.85699-19.8432 57.68639-19.8432 31.8295 0 57.6501 8.8983 57.6501 19.8432v65.4485c0 10.945-25.8206 19.844-57.6501 19.844z"/>
    <path fill="url(#f)" fill-opacity=".75" d="m118.714 104.345c0-10.4086-25.3146-18.8558-56.5055-18.8558-31.191 0-56.50539 8.4472-56.50539 18.8558 0 10.408 25.31439 18.855 56.50539 18.855 31.1909 0 56.5055-8.447 56.5055-18.855z"/>
    <path fill="url(#g)" fill-opacity=".75" d="m113.004 104.345c0-8.175-22.7562-14.8095-50.7955-14.8095s-50.7959 6.6345-50.7959 14.8095c0 8.174 22.7566 14.809 50.7959 14.809s50.7955-6.635 50.7955-14.809z"/>
    <path fill="url(#h)" d="m4.36115 87.2415c0-10.9449 25.85635-19.8258 57.68585-19.8258 31.8294 0 57.656 8.8809 57.656 19.8258l-.352 15.1925c0-10.2224-25.6978-18.5336-57.3334-18.5336s-57.30399 8.3112-57.30399 18.5336z"/>
    <path fill="url(#i)" d="m4.71482 100.808-.35246-14.8492c0-.1164.05263-.228.05875-.344l.29371 12.7567c0-9.9769 25.66838-18.0887 57.30398-18.0887s57.3332 8.1118 57.3332 18.0887l.294-12.7567c.006.116.059.2276.059.344l-.353 14.8492c0-9.9768-25.6976-18.0885-57.3332-18.0885s-57.30398 8.1117-57.30398 18.0885z"/>
    <path fill="url(#j)" d="m3.83368 102.442-.35246-15.1852c-.00017-.0098-.00017-.0196 0-.0294 0-3.0786 1.83406-5.9016 4.87568-8.3709 3.0416-2.4694 7.3442-4.6455 12.6298-6.4618 10.5712-3.6324 25.0659-5.8449 41.0615-5.8449s30.4681 2.2124 41.0318 5.8449c5.282 1.8163 9.591 3.9923 12.63 6.4618 3.039 2.4694 4.876 5.2927 4.876 8.3709v.0294l-.353 15.1852c0 .487-3.163-4.4058-5.933-6.5206-2.782-2.1241-6.885-4.0989-12.013-5.7569-10.2557-3.3158-24.5265-5.4043-40.2682-5.4043s-29.9906 2.0886-40.2391 5.4043c-5.1242 1.6579-9.2629 3.6329-12.04233 5.7569-2.76726 2.1147-5.89806 6.9556-5.90369 6.5206zm1.64481-4.5821c.81746-1.1734 1.84349-2.2812 3.2015-3.319 3.02201-2.3094 7.29431-4.3235 12.54171-6.0212 10.4946-3.3954 24.9032-5.4925 40.7971-5.4925s30.2953 2.0972 40.7972 5.4925c5.251 1.6977 9.517 3.7119 12.542 6.0212 1.359 1.0382 2.412 2.145 3.23 3.319l.235-10.6325c0-2.3943-1.401-4.7458-4.2-7.0198-2.798-2.274-6.947-4.396-12.101-6.1681-10.3067-3.5441-24.6399-5.7568-40.4738-5.7568s-30.1891 2.2126-40.5035 5.7568c-5.1571 1.7721-9.2999 3.894-12.10105 6.1681-2.80112 2.2741-4.20014 4.6259-4.20014 7.0198z"/>
    <path fill="url(#k)" d="m4.36115 65.0367c0-10.9449 25.85635-19.8258 57.68585-19.8258 31.8294 0 57.656 8.8809 57.656 19.8258l-.352 15.1923c0-10.2222-25.6978-18.5334-57.3334-18.5334s-57.30399 8.3112-57.30399 18.5334z"/>
    <path fill="url(#l)" d="m4.71482 78.6034-.35246-14.8494c0-.1164.05263-.228.05875-.344l.29371 12.7567c0-9.9769 25.66838-18.0887 57.30398-18.0887s57.3332 8.1118 57.3332 18.0887l.294-12.7567c.006.116.059.2276.059.344l-.353 14.8494c0-9.977-25.6976-18.0887-57.3332-18.0887s-57.30398 8.1117-57.30398 18.0887z"/>
    <path fill="url(#m)" d="m3.83368 80.2371-.35246-15.1851c-.00017-.0098-.00017-.0196 0-.0294 0-3.0786 1.83406-5.9016 4.87568-8.3709 3.0416-2.4694 7.3442-4.6455 12.6298-6.4618 10.5712-3.6324 25.0659-5.8449 41.0615-5.8449s30.4681 2.2124 41.0318 5.8449c5.282 1.8163 9.591 3.9923 12.63 6.4618 3.039 2.4694 4.876 5.2927 4.876 8.3709v.0294l-.353 15.1851c0 .4866-3.163-4.4057-5.933-6.5205-2.782-2.1241-6.885-4.0989-12.013-5.7569-10.2557-3.3158-24.5265-5.4043-40.2682-5.4043s-29.9906 2.0886-40.2391 5.4043c-5.1242 1.6579-9.2629 3.6329-12.04233 5.7569-2.76726 2.1147-5.89806 6.9555-5.90369 6.5205zm1.64481-4.582c.81746-1.1734 1.84349-2.2812 3.2015-3.319 3.02201-2.3094 7.29431-4.3235 12.54171-6.0212 10.4946-3.3954 24.9032-5.4925 40.7971-5.4925s30.2953 2.0972 40.7972 5.4925c5.251 1.6977 9.517 3.7119 12.542 6.0212 1.359 1.0382 2.412 2.145 3.23 3.319l.235-10.6325c0-2.3943-1.401-4.7458-4.2-7.0198-2.798-2.274-6.947-4.396-12.101-6.1681-10.3067-3.5441-24.6399-5.7568-40.4738-5.7568s-30.1891 2.2126-40.5035 5.7568c-5.1571 1.7721-9.2999 3.894-12.10105 6.1681-2.80112 2.2741-4.20014 4.6259-4.20014 7.0198z"/>
    <path fill="url(#n)" d="m4.36115 44.3459c0-10.945 25.85635-19.8259 57.68585-19.8259 31.8294 0 57.656 8.8809 57.656 19.8259l-.352 15.1923c0-10.2223-25.6978-18.5335-57.3334-18.5335s-57.30399 8.3112-57.30399 18.5335z"/>
    <path fill="url(#o)" d="m4.71482 57.9126-.35246-14.8494c0-.1165.05263-.228.05875-.344l.29371 12.7567c0-9.977 25.66838-18.0887 57.30398-18.0887s57.3332 8.1117 57.3332 18.0887l.294-12.7567c.006.116.059.2275.059.344l-.353 14.8494c0-9.977-25.6976-18.0888-57.3332-18.0888s-57.30398 8.1118-57.30398 18.0888z"/>
    <path fill="url(#p)" d="m3.83368 59.5462-.35246-15.1851c-.00017-.0098-.00017-.0196 0-.0294 0-3.0785 1.83406-5.9015 4.87568-8.3709 3.0416-2.4693 7.3442-4.6455 12.6298-6.4617 10.5712-3.6325 25.0659-5.845 41.0615-5.845s30.4681 2.2125 41.0318 5.845c5.282 1.8163 9.591 3.9923 12.63 6.4617 3.039 2.4695 4.876 5.2928 4.876 8.3709v.0294l-.353 15.1851c0 .4867-3.163-4.4057-5.933-6.5205-2.782-2.1241-6.885-4.0989-12.013-5.7568-10.2557-3.3158-24.5265-5.4044-40.2682-5.4044s-29.9906 2.0886-40.2391 5.4044c-5.1242 1.6579-9.2629 3.6328-12.04233 5.7568-2.76726 2.1147-5.89806 6.9555-5.90369 6.5205zm1.64481-4.5819c.81746-1.1735 1.84349-2.2813 3.2015-3.319 3.02201-2.3094 7.29431-4.3235 12.54171-6.0212 10.4946-3.3954 24.9032-5.4925 40.7971-5.4925s30.2953 2.0971 40.7972 5.4925c5.251 1.6977 9.517 3.7119 12.542 6.0212 1.359 1.0382 2.412 2.1449 3.23 3.319l.235-10.6326c0-2.3943-1.401-4.7458-4.2-7.0198-2.798-2.274-6.947-4.3959-12.101-6.168-10.3067-3.5442-24.6399-5.7568-40.4738-5.7568s-30.1891 2.2126-40.5035 5.7568c-5.1571 1.7721-9.2999 3.8939-12.10105 6.168-2.80112 2.2741-4.20014 4.6259-4.20014 7.0198z"/>
    <path fill="#fff" d="m62.5523 124.958c-15.4256 0-29.3747-2.081-39.5883-5.517-5.1068-1.718-9.2866-3.76-12.2556-6.12-2.96904-2.36-4.78822-5.146-4.78822-8.189s1.81918-5.8002 4.78822-8.1603c2.969-2.3601 7.1488-4.4022 12.2556-6.1202 10.2136-3.4359 24.1627-5.5454 39.5883-5.5454s29.4032 2.1095 39.6167 5.5454c5.107 1.718 9.287 3.7601 12.256 6.1202s4.788 5.1173 4.788 8.1603-1.819 5.829-4.788 8.189-7.149 4.402-12.256 6.12c-10.2135 3.436-24.1911 5.517-39.6167 5.517zm0-2.299c15.2198 0 29.0208-2.077 38.9047-5.402 4.941-1.662 8.891-3.638 11.543-5.746 2.652-2.109 3.933-4.268 3.933-6.379 0-2.112-1.281-4.242-3.933-6.3501-2.652-2.1082-6.602-4.0842-11.543-5.7466-9.8839-3.3249-23.6849-5.4306-38.9047-5.4306s-28.9923 2.1057-38.8758 5.4306c-4.9418 1.6624-8.891 3.6384-11.543 5.7466-2.65209 2.1081-3.93321 4.2381-3.93321 6.3501 0 2.111 1.28112 4.27 3.93321 6.379 2.652 2.108 6.6012 4.084 11.543 5.746 9.8835 3.325 23.656 5.402 38.8758 5.402z"/>
    <path fill="url(#q)" fill-opacity=".75" d="m12.8214 95.4305v-65.205l19.0915-6.7554v65.2049z"/>
    <path fill="url(#r)" d="m62.0482 126.594c-16.0242 0-30.5625-2.252-41.179-5.904-5.3082-1.826-9.6341-3.986-12.7179-6.491-3.08382-2.505-4.9638-5.436-4.9638-8.635 0-6.4469 0-58.9925 0-65.4402 0-3.1989 1.87998-6.13 4.9638-8.6353 3.0838-2.5052 7.4097-4.6943 12.7179-6.5205 10.6165-3.6524 25.1548-5.8743 41.179-5.8743s30.5421 2.2218 41.1498 5.8743c5.304 1.8263 9.608 4.0151 12.688 6.5205 3.081 2.5054 4.964 5.4371 4.964 8.6353v65.4402c0 3.198-1.883 6.13-4.964 8.635-3.08 2.505-7.384 4.665-12.688 6.491-10.6077 3.653-25.1256 5.904-41.1498 5.904zm0-2.35c15.8052 0 30.0965-2.224 40.3568-5.757 5.13-1.766 9.257-3.868 12.013-6.109 2.755-2.241 4.082-4.54 4.082-6.814 0-6.4469 0-58.9925 0-65.4402 0-2.2743-1.327-4.573-4.082-6.8142-2.756-2.2413-6.883-4.3429-12.013-6.1093-10.2603-3.5329-24.5516-5.7569-40.3568-5.7569-15.8053 0-30.146 2.2239-40.4153 5.7569-5.1347 1.7665-9.254 3.8679-12.01302 6.1093-2.75903 2.2414-4.08265 4.5405-4.08265 6.8142v65.4402c0 2.273 1.32362 4.572 4.08265 6.814 2.75902 2.241 6.87832 4.343 12.01302 6.109 10.2693 3.533 24.61 5.757 40.4153 5.757z"/>
  </g>
  <g stroke-width="1.075" transform="matrix(1 0 0 -1 34.4695 128.8617)">
    <path fill-opacity=".312" d="m92.8626 37.7597c-.7213-1.7414-2.4218-2.8787-4.3072-2.8787 0 0-8.621 0-13.8376 0 0-6.9042 0-28.77477 0-28.77477 0-2.5723-2.0854-4.66089-4.6609-4.66089h-36.5444c-2.5755 0-4.662 2.08859-4.662 4.66089v28.77477c-5.2166 0-13.8365 0-13.8365 0-1.8854 0-3.5849 1.1373-4.3072 2.8787-.2397.5751-.3537 1.1824-.3537 1.7833 0 1.2136.473 2.4046 1.3641 3.2957l36.7723 36.7712c1.8188 1.8199 4.7716 1.6756 6.4483-.1442l36.9144-36.627c1.3329-1.3339 1.7317-3.3365 1.0104-5.079z"/>
    <path fill="url(#s)" d="m28.6151 5.26072c-3.6171 0-6.5614 2.94315-6.5614 6.56028v26.8743c-2.826 0-11.936 0-11.936 0-2.66368 0-5.04142 1.5899-6.0626 4.0514-.33108.7976-.49877 1.6436-.49877 2.5111 0 1.7532.68365 3.4 1.92197 4.6394l36.7701 36.7701c2.5594 2.5594 6.8648 2.4151 9.2778 0l36.7712-36.7712c1.8832-1.8833 2.4411-4.6899 1.4221-7.1483v-.0011c-1.018-2.4605-3.3989-4.0514-6.0615-4.0514 0 0-9.1111 0-11.9371 0 0-3.3118 0-26.8743 0-26.8743 0-3.61713-2.9443-6.56028-6.5614-6.56028zm16.3185 78.72038-36.77012-36.7691c-.52134-.5224-.80942-1.2179-.80942-1.9553 0-.3644.06987-.7213.21068-1.0566.42782-1.0374 1.43073-1.706 2.55186-1.706h15.7349v-30.6731c0-1.5221 1.2404-2.76148 2.7636-2.76148h36.5444c1.5242 0 2.7626 1.23938 2.7626 2.76148v30.6731h15.7359c1.1211 0 2.1229.6686 2.5518 1.706.1441.3429.2118.7019.2118 1.0588 0 .718-.2816 1.4221-.8116 1.9531l-36.769 36.7691c-1.076 1.077-2.8303 1.077-3.9074 0z"/>
    <path fill="url(#t)" d="m87.9652 43.4734c-.7213-1.7414-2.4218-2.8787-4.3072-2.8787 0 0-8.621 0-13.8376 0 0-6.9042 0-28.7748 0-28.7748 0-2.57227-2.0854-4.66086-4.6609-4.66086h-36.5444c-2.5755 0-4.662 2.08859-4.662 4.66086v28.7748c-5.2166 0-13.8365 0-13.8365 0-1.8854 0-3.58487 1.1373-4.30722 2.8787-.23971.5751-.35365 1.1824-.35365 1.7833 0 1.2136.47297 2.4046 1.36409 3.2957l36.77228 36.7713c1.8188 1.8198 4.7716 1.6755 6.4483-.1443l36.9144-36.627c1.3329-1.3339 1.7317-3.3365 1.0104-5.079z"/>
    <path fill="url(#u)" d="m15.061 54.7987 28.7342 28.1561c1.7067 1.7077 4.4775 1.5723 6.0509-.1354l30.3105-29.6079c-24.7215-14.6708-41.8354-14.8324-65.0956 1.5872z"/>
  </g>
</svg>
