<svg xmlns="http://www.w3.org/2000/svg" viewBox="0 0 454.83 336.01"><defs><style>.cls-1{isolation:isolate;}.cls-2{mix-blend-mode:lighten;}.cls-3,.cls-6{fill:#999;}.cls-10,.cls-11,.cls-12,.cls-13,.cls-14,.cls-15,.cls-16,.cls-4{fill:none;}.cls-10,.cls-11,.cls-12,.cls-13,.cls-14,.cls-15,.cls-16,.cls-17,.cls-4{stroke:#3aa272;stroke-miterlimit:10;}.cls-4{stroke-width:3px;}.cls-18,.cls-5{fill:#3aa272;}.cls-18,.cls-6{opacity:0.5;}.cls-7{fill:#a7db44;}.cls-17,.cls-8{fill:#fff;}.cls-9{fill:#39393a;}.cls-10,.cls-11,.cls-12,.cls-13,.cls-14,.cls-15,.cls-16,.cls-17{stroke-linecap:round;}.cls-10,.cls-11,.cls-12,.cls-13,.cls-14,.cls-15,.cls-16{stroke-width:5px;}.cls-11{stroke-dasharray:0 10.38;}.cls-12{stroke-dasharray:0 9.46;}.cls-13{stroke-dasharray:0 10.3;}.cls-14{stroke-dasharray:0 10.79;}.cls-15{stroke-dasharray:0 9.94;}.cls-16{stroke-dasharray:0 10.93;}.cls-17{stroke-width:2px;}.cls-19{fill:#f2f2f2;}.cls-20{fill:#0b6f7b;}</style></defs><title>sign-chain-trust</title><g class="cls-1"><g id="CREATE_PAGE" data-name="CREATE PAGE"><g class="cls-2"><path class="cls-3" d="M420.05,108.21l-.54-26.95s-.54-20.34-.8-21.09a7.74,7.74,0,0,0-3.23-4.06,7.34,7.34,0,0,0-2.42-1c-1-.24-18.84-.08-26.91-.11H375.24c-6.57,0-126.15.21-126.34.23a7.25,7.25,0,0,0-1.54.3,7.79,7.79,0,0,0-2.75,1.54,7.65,7.65,0,0,0-2.6,5.65c-.44,11.63-.61,23.3-.73,33.34-.05,3.56.13,18.16.15,18.47a8.31,8.31,0,0,0,4.57,7,8.71,8.71,0,0,0,2.07.73l17.36.27,14.07-.32c10.16-.25,20.66-.51,31-.52,13.32,0,26.88.14,40,.3q10.25.12,20.48.22l34.65.17c1.3,0,10.37-1.15,11.24-1.92a8.38,8.38,0,0,0,2.49-3.46,10,10,0,0,0,.62-3.58v-.12C420.05,111.26,420.08,109.69,420.05,108.21Zm-4.88-4.38-.39,10.62a3.52,3.52,0,0,1-1.17,2.14c-.15.13-9.66.36-9.74.36l-16,0c-15.86,0-32.25.09-48.37.26-9.94.11-28.73.09-42.44.08-8.38,0-14.43,0-15.26,0s-12.17.06-13.82-.07c-1.88-.15-12.36-.35-12.36-.35h-6a1.38,1.38,0,0,1-.34,0,2.83,2.83,0,0,1-2.38-2.55l0-.25.33-29.57s.42-22.33.48-22.51a2.09,2.09,0,0,1,1.71-1.38c.09,0,48.38.41,49.84.37l18.61-.49c2.23-.07,4.5-.19,6.69-.3,4.33-.23,8.82-.46,13.21-.32,3,.09,33,1.2,45.11.53,5.77-.32,29.25-.36,29.5-.28a2.8,2.8,0,0,1,1.17.89,2.76,2.76,0,0,1,.56,1.39S415.2,103.09,415.17,103.83Z"/><path class="cls-3" d="M241.28,139.62l.54,27s.54,20.34.8,21.09a7.78,7.78,0,0,0,3.23,4.06,7.56,7.56,0,0,0,2.42,1c1,.23,18.84.08,26.91.1h10.91c6.57,0,126.15-.2,126.34-.22a7.24,7.24,0,0,0,1.54-.31,7.62,7.62,0,0,0,5.35-7.18c.44-11.63.61-23.31.73-33.34.05-3.57-.13-18.16-.15-18.48a8.36,8.36,0,0,0-1.35-4.12,8.27,8.27,0,0,0-3.22-2.86,7.91,7.91,0,0,0-2.07-.73l-17.36-.28s-9.48.21-14.07.33c-10.16.25-20.66.51-31,.52-13.32,0-26.88-.15-40-.3q-10.25-.12-20.48-.22l-34.65-.18c-1.3,0-10.37,1.16-11.24,1.92a8.45,8.45,0,0,0-2.49,3.46,10.11,10.11,0,0,0-.62,3.58v.13C241.28,136.58,241.25,138.14,241.28,139.62Zm4.88,4.38.39-10.61a3.59,3.59,0,0,1,1.17-2.15c.15-.13,9.66-.35,9.74-.35l16,0c15.85-.05,32.24-.09,48.36-.26,9.94-.11,28.73-.09,42.44-.08,8.38,0,14.43,0,15.26,0s12.17-.06,13.82.07c1.88.15,12.36.35,12.36.35h6l.34,0a2.86,2.86,0,0,1,2.39,2.56v.24l-.33,29.57s-.42,22.33-.48,22.52a2.08,2.08,0,0,1-1.71,1.37c-.09,0-48.38-.41-49.84-.36l-18.61.49c-2.23.07-4.5.18-6.69.3-4.33.22-8.82.46-13.21.32-3-.1-33-1.2-45.11-.54-5.77.32-29.25.37-29.5.28a2.72,2.72,0,0,1-1.17-.89,2.69,2.69,0,0,1-.56-1.38S246.13,144.75,246.16,144Z"/><path class="cls-3" d="M420.05,249.27l-.54-27s-.54-20.34-.8-21.09a7.78,7.78,0,0,0-3.23-4.06,7.56,7.56,0,0,0-2.42-1c-1-.23-18.84-.08-26.91-.1H375.24c-6.57,0-126.15.2-126.34.22a7.24,7.24,0,0,0-1.54.31,7.62,7.62,0,0,0-5.35,7.18c-.44,11.63-.61,23.31-.73,33.34-.05,3.57.13,18.16.15,18.48a8.36,8.36,0,0,0,1.35,4.12,8.27,8.27,0,0,0,3.22,2.86,7.91,7.91,0,0,0,2.07.73l17.36.28s9.48-.21,14.07-.33c10.16-.25,20.66-.5,31-.52,13.32,0,26.88.15,40,.3q10.25.12,20.48.22l34.65.18c1.3,0,10.37-1.16,11.24-1.92a8.45,8.45,0,0,0,2.49-3.46,10.11,10.11,0,0,0,.62-3.58v-.13C420.05,252.31,420.08,250.75,420.05,249.27Zm-4.88-4.38-.39,10.61a3.51,3.51,0,0,1-1.17,2.15c-.15.13-9.66.35-9.74.35l-16,.05c-15.86.05-32.25.09-48.37.26-9.94.11-28.73.09-42.44.09-8.38,0-14.43,0-15.26,0s-12.17.06-13.82-.07c-1.88-.15-12.36-.35-12.36-.35h-6l-.34,0a2.84,2.84,0,0,1-2.38-2.56l0-.24.33-29.57s.42-22.33.48-22.52a2.08,2.08,0,0,1,1.71-1.37c.09,0,48.38.41,49.84.36l18.61-.49c2.23-.07,4.5-.18,6.69-.3,4.33-.22,8.82-.46,13.21-.32,3,.1,33,1.2,45.11.54,5.77-.32,29.25-.37,29.5-.28a2.72,2.72,0,0,1,1.17.89,2.69,2.69,0,0,1,.56,1.38S415.2,244.14,415.17,244.89Z"/><path class="cls-4" d="M418.73,88.38H447.1a3.73,3.73,0,0,1,3.73,3.73v54a3.73,3.73,0,0,1-3.73,3.73H427.35"/><polygon class="cls-5" points="429.1 143.83 418.73 149.81 429.1 155.8 429.1 143.83"/><path class="cls-4" d="M418.73,168.37H447.1a3.73,3.73,0,0,1,3.73,3.73v54a3.73,3.73,0,0,1-3.73,3.72H427.35"/><polygon class="cls-5" points="429.1 223.82 418.73 229.8 429.1 235.79 429.1 223.82"/><path class="cls-4" d="M242.29,149.8H213.93a3.73,3.73,0,0,1-3.73-3.72v-54a3.73,3.73,0,0,1,3.73-3.73h19.75"/><polygon class="cls-5" points="231.93 94.35 242.29 88.37 231.93 82.39 231.93 94.35"/><path class="cls-4" d="M242.29,229.8H213.93a3.73,3.73,0,0,1-3.73-3.72v-54a3.73,3.73,0,0,1,3.73-3.73h19.75"/><polygon class="cls-5" points="231.93 174.35 242.29 168.37 231.93 162.39 231.93 174.35"/><rect class="cls-6" x="257.35" y="78.03" width="145.26" height="20.69"/><rect class="cls-6" x="257.35" y="148.74" width="145.26" height="20.69"/><rect class="cls-6" x="257.35" y="219.45" width="145.26" height="20.69"/></g><path class="cls-5" d="M329.57,89.86c-11.22,18.41-28.85,29.39-40.48,34a62.1,62.1,0,0,1-8.33,2.73c-.08,1.73-.06,4,.05,6.05,3.05,56.87,48.75,77.09,48.75,77.09C380.89,188.06,382,124.91,382,124.91S346.25,113.51,329.57,89.86Z"/><path class="cls-7" d="M329.78,202.22c-8.68-5.41-42-26.43-41.32-70.66,0,0,30.05-8.79,41.32-30.51,14.35,18,41.21,27.83,44.53,29.25C374.29,130.61,372.75,181.28,329.78,202.22Z"/><g id="Check_Mark_1" data-name="Check Mark 1"><polygon class="cls-8" points="350.99 128.88 321.44 158.43 311.77 148.75 301.74 158.78 321.44 178.47 321.61 178.3 331.46 168.45 361.01 138.91 350.99 128.88"/></g><polygon class="cls-8" points="99.7 142.31 3.42 142.31 3.42 12.06 75.17 12.06 99.7 40.79 99.7 142.31"/><path class="cls-9" d="M101.78,137.85c0-.15,0-.3,0-.45-.48-11.61-1.14-36.4-1-37.18h0l.36-24.73s-.25-30.71-.17-35.18a6.34,6.34,0,0,0-1.82-4.45C93.86,30.6,91.79,28.41,86.71,23c-1.87-2-6.33-7.67-8.13-9.73C76.93,11.34,75.74,8.76,72.47,9c-5.67.35-11.36.66-17,.76-9.88.17-19.76.22-29.64.25-7,0-14-.05-21.07-.14C1.94,9.79,1.29,10.24,1,13c-.1,1,.56,31.92.56,49.31,0,2.75.07,7,.14,29.62Q1.79,117,2,142a3.41,3.41,0,0,0,1.32,2.34,6.9,6.9,0,0,0,3.32.77c7.56-.06,15.13-.51,22.68-.27,20.08.64,64.07-.45,66-.43C100.75,144.47,102,143.17,101.78,137.85ZM76,16.55c5.1,5.22,9.79,10.81,14.69,16.22C91.8,34,93,35.25,94.15,36.53a16.82,16.82,0,0,1,1.23,1.68,3.07,3.07,0,0,1-1,.21c-1.56,0-3.13-.05-4.69-.12-1,0-3-.14-3-.11-3.78-.22-7.57-.4-11.35-.68C73.27,37.36,73,37.1,72.91,35c-.36-6.23-.63-11.7-.81-17.93a28.77,28.77,0,0,1,.24-3.39A18.47,18.47,0,0,1,76,16.55Zm18.18,123.9c-7.16.42-14.34.71-21.52.83-7.7.12-15.4,0-23.1-.05-12.8-.13-25.6-.29-38.39-.55-3.93-.08-4.41-.74-4.74-4.64,0-.59-.85-39.79-1-55.44C5.15,62.41,5.08,44.22,5,26c0-2.9.34-5.8.38-8.7,0-2.32,1.16-3,3.36-3.09,14.82-.33,29.63-.81,44.45-1.1,5.35-.11,12.13-.22,17.21.22,0,.24.06.54.08,1,.18,5.67.44,11.34.63,17,.06,1.8,0,3.62,0,5.42-.07,2.22.24,2.6,2.46,2.64,4.95.08,9.91,0,14.86.22,2.59.1,5.16.43,7.73.7a9.44,9.44,0,0,1,.67,2.16c.12.94.23,8.34.36,12.51l-.1,44.58c.43,11.54,1.07,35.82,1.06,36.42C98,139.33,97.42,140.26,94.14,140.45Z"/><rect class="cls-6" x="13.43" y="32.71" width="48.82" height="7.29" rx="1" ry="1"/><rect class="cls-6" x="13.43" y="76.11" width="52.47" height="7.29" rx="1" ry="1"/><rect class="cls-6" x="13.43" y="47" width="74.48" height="7.29" rx="1" ry="1"/><rect class="cls-6" x="13.43" y="61.7" width="74.48" height="7.29" rx="1" ry="1"/><rect class="cls-6" x="14.18" y="125.14" width="34.72" height="7.29" rx="1" ry="1"/><line class="cls-10" x1="144.21" y1="90.76" x2="144.21" y2="90.76"/><line class="cls-11" x1="154.59" y1="90.76" x2="180.53" y2="90.76"/><line class="cls-10" x1="185.72" y1="90.76" x2="185.72" y2="90.76"/><line class="cls-12" x1="185.72" y1="81.3" x2="185.72" y2="10.33"/><line class="cls-10" x1="185.72" y1="5.6" x2="185.72" y2="5.6"/><line class="cls-13" x1="196.02" y1="5.6" x2="324.82" y2="5.6"/><line class="cls-10" x1="329.98" y1="5.6" x2="329.98" y2="5.6"/><line class="cls-14" x1="329.98" y1="16.38" x2="329.98" y2="32.56"/><line class="cls-10" x1="329.98" y1="37.96" x2="329.98" y2="37.96"/><polygon class="cls-5" points="320 35.04 329.98 52.31 339.95 35.04 320 35.04"/><line class="cls-10" x1="141.08" y1="307.59" x2="141.08" y2="307.59"/><line class="cls-15" x1="151.02" y1="307.59" x2="325.01" y2="307.59"/><line class="cls-10" x1="329.98" y1="307.59" x2="329.98" y2="307.59"/><line class="cls-16" x1="329.98" y1="296.66" x2="329.98" y2="269.34"/><line class="cls-10" x1="329.98" y1="263.88" x2="329.98" y2="263.88"/><polygon class="cls-5" points="144 317.56 126.73 307.59 144 297.62 144 317.56"/><rect class="cls-17" x="29.7" y="72.66" width="113.95" height="45.7" rx="3" ry="3"/><rect class="cls-18" x="41.28" y="106.35" width="89.64" height="2.93" rx="0.52" ry="0.52"/><path class="cls-18" d="M49.63,98.33l3.28-3.28A1.34,1.34,0,1,0,51,93.16l-3.28,3.27-3.29-3.27a1.34,1.34,0,1,0-1.9,1.89l3.29,3.28-3.29,3.27a1.34,1.34,0,0,0,1.9,1.89l3.29-3.27L51,103.49a1.34,1.34,0,0,0,1.9-1.89Z"/><path class="cls-5" d="M128.35,95.7a1.51,1.51,0,0,0-2.1.45,8,8,0,0,1-5.7,4,2.61,2.61,0,0,1-2-.45v0c.49-.26,1.15-.64,2-1.22a16.27,16.27,0,0,0,3.88-3.36,3,3,0,0,0,.55-3.23,3.18,3.18,0,0,0-2.87-1.8h0c-2.39,0-4.84,2.26-6,4.51a7.52,7.52,0,0,0-1,3.69,7,7,0,0,1-2.2,1.5c-.34-.94,0-4.19,1.32-7.72l.38-1-.82-.7a1.62,1.62,0,0,0-1.54-.3,1.59,1.59,0,0,0-1.06,1.13A15.54,15.54,0,0,1,108.51,97a7.43,7.43,0,0,0-2.75-4.24l-3.29-2.8a1.61,1.61,0,0,0-2.61.83,15.38,15.38,0,0,1-2.72,5.82,5.67,5.67,0,0,0-2.09-3.3l-4.31-2.86a1.61,1.61,0,0,0-2.49.91C87.08,96,84.51,99.2,81.37,100a3.22,3.22,0,0,1-2.79-.3v0a23.4,23.4,0,0,0,2-1.22,16.12,16.12,0,0,0,3.89-3.36A3,3,0,0,0,85,91.84,3.18,3.18,0,0,0,82.16,90h0c-2.38,0-4.83,2.26-6,4.51a6.53,6.53,0,0,0,.06,6.94l.13.16a5.19,5.19,0,0,0,3.9,1.52,8.22,8.22,0,0,0,1.93-.24c3.75-.94,6.85-4.23,8.51-9l2.57,1.71a2.2,2.2,0,0,1,.87,2.55,2.3,2.3,0,0,1-1.9,1.42h-.1a2.54,2.54,0,0,1-.39,0,2,2,0,0,1-1.2-.38,1.52,1.52,0,0,0-2.22,2.07,4.73,4.73,0,0,0,3.21,1.33,4.28,4.28,0,0,0,.62,0h0c3.32-.15,7.73-2.64,10-9.06l1.67,1.42c1.43,1.16,2,2.48,1.63,3.62a2.26,2.26,0,0,1-1.38,1.37l-.13,0a3.47,3.47,0,0,1-1.19,0,2.46,2.46,0,0,1-.88-.51l0,0a.69.69,0,0,0-.13-.11l-.11-.09-.13-.07-.13-.07-.14,0-.14,0-.15,0h-.42l-.15,0-.14,0-.13.06-.14.08,0,0-.08.07a.27.27,0,0,0-.08.07l0,0-.11.12-.09.11s0,.09-.07.13-.05.09-.07.13,0,.1,0,.14,0,.09,0,.14,0,.1,0,.15,0,.09,0,.14,0,.1,0,.15a.78.78,0,0,0,0,.14.7.7,0,0,0,0,.14l0,.15.06.12a.64.64,0,0,0,.08.14l0,0a4,4,0,0,0,2.59,1.58,4.21,4.21,0,0,0,1.09.17h.06a5.47,5.47,0,0,0,1.67-.29,10.58,10.58,0,0,0,5-3,3.42,3.42,0,0,0,1.33,2.34c1.6,1.1,3.51.08,4.86-.94l.06.09.13.16a5.18,5.18,0,0,0,3.9,1.52c.2,0,.41,0,.61,0,3-.25,6-2.2,8-5.36A1.52,1.52,0,0,0,128.35,95.7Zm-9.57.28c1-1.81,2.6-2.9,3.36-2.9h.06A13,13,0,0,1,118.76,96Zm-40,0c1-1.81,2.6-2.9,3.35-2.9h0a9.18,9.18,0,0,1-2.36,2.2c-.36.27-.72.51-1.06.73ZM77,91.2c.73-1.61,1.12-2.65,1.15-2.74l0-.15c1.26-4.94-1-6.92-2.5-7.66-5.57-2.8-18,2.71-21.78,7.38a1.52,1.52,0,0,0,2.36,1.91c3.26-4,14.24-8.5,18-6.58.44.21,1.76.88,1,4.13-.08.22-.37,1-.85,2C67.28,91,55.86,101.07,53.84,106c-.71,1.74-.28,2.8.21,3.38a3.14,3.14,0,0,0,2.53,1,8.83,8.83,0,0,0,1.78-.22h0C63.81,108.77,69,104.57,73.27,98a53.61,53.61,0,0,0,3.44-6.14A1.6,1.6,0,0,0,77,91.2Zm-19.32,16a5.88,5.88,0,0,1-1.13.15c.4-1.19,2.49-4.2,7-8a39.46,39.46,0,0,1,9-6C69.66,98.49,64.64,105.42,57.69,107.18Zm56.57-19.09a1.72,1.72,0,1,0-1.71-1.72A1.72,1.72,0,0,0,114.26,88.09Z"/><polygon class="cls-8" points="88.79 303.09 14.93 303.09 14.93 203.17 69.97 203.17 88.79 225.21 88.79 303.09"/><path class="cls-9" d="M90.39,299.66c0-.11,0-.22,0-.34-.37-8.91-.88-27.92-.76-28.52h0l.28-19s-.2-23.56-.14-27a4.82,4.82,0,0,0-1.39-3.41c-4.06-4-5.65-5.72-9.55-9.91-1.43-1.53-4.85-5.88-6.24-7.46s-2.17-3.43-4.68-3.27c-4.35.26-8.71.5-13.07.57-7.58.14-15.16.18-22.74.2-5.39,0-10.78,0-16.16-.11-2.13,0-2.64.32-2.85,2.43-.07.73.43,24.48.43,37.82,0,2.11.05,5.4.11,22.73q.06,19.2.23,38.42a2.64,2.64,0,0,0,1,1.79,5.36,5.36,0,0,0,2.55.6c5.8-.05,11.61-.4,17.4-.21,15.4.49,49.15-.35,50.64-.33C89.6,304.75,90.56,303.75,90.39,299.66Zm-19.81-93c3.91,4,7.51,8.29,11.27,12.44.88,1,1.81,1.9,2.68,2.88a13.38,13.38,0,0,1,1,1.29,2.52,2.52,0,0,1-.75.16c-1.21,0-2.41,0-3.61-.09-.75,0-2.27-.11-2.27-.08-2.91-.17-5.81-.31-8.71-.52-1.63-.12-1.81-.32-1.9-2-.28-4.78-.49-9-.62-13.76a22.56,22.56,0,0,1,.18-2.6A14.3,14.3,0,0,1,70.58,206.62Zm14,95c-5.5.32-11,.55-16.51.64-5.91.09-11.82,0-17.73,0-9.81-.1-19.63-.22-29.45-.42-3-.06-3.38-.57-3.63-3.56,0-.45-.65-30.52-.79-42.53-.16-13.95-.22-27.91-.27-41.87,0-2.22.25-4.45.28-6.67,0-1.79.89-2.33,2.59-2.37,11.36-.25,22.73-.62,34.09-.85,4.1-.08,9.3-.17,13.2.17a5.66,5.66,0,0,1,.06.76c.15,4.35.34,8.7.49,13.05,0,1.38,0,2.77,0,4.16,0,1.7.19,2,1.89,2,3.8.06,7.61,0,11.4.17,2,.08,4,.33,5.93.54a7.47,7.47,0,0,1,.52,1.65c.09.73.17,6.4.27,9.6l-.07,34.2c.32,8.85.82,27.48.81,27.94C87.51,300.8,87,301.51,84.53,301.66Z"/><rect class="cls-18" x="22.61" y="219.01" width="37.45" height="5.59" rx="1" ry="1"/><rect class="cls-18" x="22.61" y="252.3" width="40.25" height="5.59" rx="1" ry="1"/><rect class="cls-18" x="22.61" y="229.98" width="57.13" height="5.59" rx="1" ry="1"/><rect class="cls-18" x="22.61" y="241.25" width="57.13" height="5.59" rx="1" ry="1"/><rect class="cls-18" x="23.19" y="289.92" width="26.63" height="5.59" rx="1" ry="1"/><rect class="cls-18" x="23.19" y="282.47" width="58.5" height="1.91" rx="0.52" ry="0.52"/><path class="cls-18" d="M28.63,277.23l2.15-2.13a.88.88,0,1,0-1.24-1.24L27.39,276l-2.14-2.14A.88.88,0,0,0,24,275.1l2.14,2.13L24,279.37a.87.87,0,0,0,0,1.23.88.88,0,0,0,1.24,0l2.14-2.13,2.15,2.13a.88.88,0,0,0,1.24,0,.87.87,0,0,0,0-1.23Z"/><path class="cls-5" d="M80,275.51a1,1,0,0,0-1.37.3,5.3,5.3,0,0,1-3.72,2.6,1.75,1.75,0,0,1-1.28-.3v0A13.79,13.79,0,0,0,75,277.3a10.54,10.54,0,0,0,2.53-2.2,1.91,1.91,0,0,0,.36-2.1A2.06,2.06,0,0,0,76,271.83h0c-1.55,0-3.15,1.47-3.93,2.94a5,5,0,0,0-.63,2.41,4.51,4.51,0,0,1-1.44,1,10.4,10.4,0,0,1,.86-5l.25-.65-.53-.45a1,1,0,0,0-1.7.54,10.19,10.19,0,0,1-1.77,3.8,4.89,4.89,0,0,0-1.79-2.77l-2.15-1.83a1.06,1.06,0,0,0-1-.2,1,1,0,0,0-.7.74,10.11,10.11,0,0,1-1.78,3.8,3.69,3.69,0,0,0-1.36-2.15l-2.81-1.87a1.06,1.06,0,0,0-1.63.6c-.77,3-2.44,5.13-4.49,5.64a2.08,2.08,0,0,1-1.82-.2v0a12.74,12.74,0,0,0,1.32-.79,10.59,10.59,0,0,0,2.54-2.2,1.91,1.91,0,0,0,.36-2.1,2.06,2.06,0,0,0-1.87-1.17h0c-1.55,0-3.15,1.47-3.93,2.94a4.24,4.24,0,0,0,0,4.53l.08.1a3.38,3.38,0,0,0,2.55,1,5.06,5.06,0,0,0,1.26-.16c2.45-.61,4.47-2.76,5.55-5.84l1.68,1.11a1.44,1.44,0,0,1,.57,1.67,1.54,1.54,0,0,1-1.24.93h-.32a1.28,1.28,0,0,1-.78-.25,1,1,0,1,0-1.45,1.35,3.08,3.08,0,0,0,2.09.87h.43c2.17-.1,5-1.73,6.55-5.91l1.09.92c.93.76,1.32,1.62,1.06,2.36a1.43,1.43,0,0,1-.89.89l-.09,0a2.08,2.08,0,0,1-.78,0,1.53,1.53,0,0,1-.57-.33l0,0-.08-.07-.08-.06-.08-.05-.09,0-.09,0-.09,0h-.37l-.1,0-.09,0-.09,0-.09.05,0,0-.06,0a.1.1,0,0,1-.05,0l0,0a.27.27,0,0,0-.07.08l-.06.07a.22.22,0,0,1,0,.08l0,.09,0,.09a.29.29,0,0,0,0,.09.28.28,0,0,0,0,.09.38.38,0,0,0,0,.1v.09a.38.38,0,0,1,0,.1l0,.09,0,.09a.36.36,0,0,0,0,.09l0,.09s0,0,0,0a2.51,2.51,0,0,0,1.69,1,2.4,2.4,0,0,0,.71.12h0a3.89,3.89,0,0,0,1.08-.19A6.86,6.86,0,0,0,68,278.32a2.28,2.28,0,0,0,.87,1.53c1,.72,2.3,0,3.17-.61l0,.06.09.1a3.36,3.36,0,0,0,2.54,1h.4a7.14,7.14,0,0,0,5.22-3.5A1,1,0,0,0,80,275.51Zm-6.25.19A3.49,3.49,0,0,1,76,273.8h0a8.45,8.45,0,0,1-2.24,1.92Zm-26.11,0a3.49,3.49,0,0,1,2.19-1.9h0a6.14,6.14,0,0,1-1.54,1.44l-.69.47Zm-1.15-3.12c.48-1.05.73-1.73.75-1.79l0-.09c.83-3.23-.67-4.52-1.63-5-3.63-1.82-11.74,1.78-14.22,4.82A1,1,0,0,0,33,271.76c2.13-2.63,9.3-5.55,11.79-4.3.28.14,1.14.58.62,2.7-.06.14-.24.62-.56,1.32-4.67.95-12.12,7.54-13.44,10.75a2,2,0,0,0,.14,2.21,2.07,2.07,0,0,0,1.65.65,5.37,5.37,0,0,0,1.16-.15h0c3.53-.88,6.88-3.63,9.7-7.93a34.54,34.54,0,0,0,2.25-4A1,1,0,0,0,46.5,272.58ZM33.9,283a4.18,4.18,0,0,1-.74.1c.26-.78,1.62-2.74,4.54-5.24a25.81,25.81,0,0,1,5.87-3.9C41.7,277.34,38.43,281.86,33.9,283Zm36.91-12.46a1.12,1.12,0,1,0-1.11-1.12A1.12,1.12,0,0,0,70.81,270.55Z"/><path class="cls-7" d="M121.36,307.42a2.55,2.55,0,0,0,0-3.12l-.93-1.18a2.51,2.51,0,0,1-.36-2.5l.56-1.39a2.53,2.53,0,0,0-.88-3l-1.22-.87a2.52,2.52,0,0,1-1-2.3l.14-1.49a2.53,2.53,0,0,0-1.69-2.63l-1.42-.49a2.56,2.56,0,0,1-1.66-1.91l-.28-1.47a2.52,2.52,0,0,0-2.36-2.05l-1.5-.08a2.54,2.54,0,0,1-2.13-1.36l-.68-1.33a2.55,2.55,0,0,0-2.85-1.31l-1.45.36a2.55,2.55,0,0,1-2.43-.71l-1-1.09a2.55,2.55,0,0,0-3.1-.44l-1.29.75a2.56,2.56,0,0,1-2.54,0l-1.29-.75a2.55,2.55,0,0,0-3.1.44l-1,1.09a2.55,2.55,0,0,1-2.43.71l-1.45-.36a2.55,2.55,0,0,0-2.85,1.31l-.68,1.33a2.54,2.54,0,0,1-2.13,1.36l-1.5.08a2.52,2.52,0,0,0-2.36,2l-.28,1.48a2.56,2.56,0,0,1-1.66,1.91l-1.42.49a2.53,2.53,0,0,0-1.69,2.63l.14,1.49a2.52,2.52,0,0,1-1,2.3l-1.22.87a2.53,2.53,0,0,0-.88,3l.56,1.39a2.51,2.51,0,0,1-.36,2.5l-.93,1.18a2.55,2.55,0,0,0,0,3.12l.93,1.19a2.51,2.51,0,0,1,.36,2.5l-.56,1.39a2.54,2.54,0,0,0,.88,3l1.22.87a2.51,2.51,0,0,1,1,2.3l-.14,1.49A2.53,2.53,0,0,0,69,322.79l1.42.49a2.52,2.52,0,0,1,1.66,1.91l.28,1.47a2.53,2.53,0,0,0,2.36,2l1.5.07a2.55,2.55,0,0,1,2.13,1.37l.68,1.33a2.53,2.53,0,0,0,2.85,1.3l1.45-.35a2.55,2.55,0,0,1,2.43.71l1,1.08a2.54,2.54,0,0,0,3.1.45l1.29-.75a2.51,2.51,0,0,1,2.54,0l1.29.75a2.54,2.54,0,0,0,3.1-.45l1-1.08a2.55,2.55,0,0,1,2.43-.71l1.45.35a2.53,2.53,0,0,0,2.85-1.3l.68-1.33a2.55,2.55,0,0,1,2.13-1.37l1.5-.07a2.53,2.53,0,0,0,2.36-2l.28-1.47a2.52,2.52,0,0,1,1.66-1.91l1.42-.49a2.53,2.53,0,0,0,1.69-2.63l-.14-1.49a2.51,2.51,0,0,1,1-2.3l1.22-.87a2.54,2.54,0,0,0,.88-3l-.56-1.39a2.53,2.53,0,0,1,.36-2.5Z"/><path class="cls-9" d="M119.44,300.22l.6-1.08a2.19,2.19,0,0,0,.35-1.05,2.05,2.05,0,0,0-.31-1.18,3.76,3.76,0,0,0-1-1c-.38-.31-.87-.44-1.35-.8a2.88,2.88,0,0,1-1.06-1.51,2.81,2.81,0,0,1-.1-.79c0-.21,0-.42,0-.62v-.63a1.4,1.4,0,0,0,0-.42,1.43,1.43,0,0,0-.34-.59,1.37,1.37,0,0,0-.52-.35l-.14-.05-.28-.09-.59-.2a5.13,5.13,0,0,1-1.09-.59,3.33,3.33,0,0,1-1.17-1.54,3.28,3.28,0,0,1-.21-.89c0-.31,0-.47,0-.67a4.34,4.34,0,0,0,0-.82,2,2,0,0,0-.84-1.37,1.84,1.84,0,0,0-.7-.31,2.33,2.33,0,0,0-.37,0h-1.5a3.36,3.36,0,0,1-2.37-1,4.24,4.24,0,0,1-.7-1c-.3-.51-.52-1.17-.71-1.45a1.61,1.61,0,0,0-1.07-.71.9.9,0,0,0-.58.1c-.18.1-.47.24-.71.35a7,7,0,0,1-.86.29,3.33,3.33,0,0,1-1.57,0,3.55,3.55,0,0,1-1.31-.62,2.8,2.8,0,0,1-.39-.35l-.17-.16-.53-.51-.27-.25a2.13,2.13,0,0,0-.22-.19,1.39,1.39,0,0,0-1.48-.09l-.51.31-.63.37-.31.16a3.82,3.82,0,0,1-.46.21,4,4,0,0,1-1,.21A3.61,3.61,0,0,1,91,279a3.52,3.52,0,0,1-.4-.24l-.27-.2-.53-.4a3.53,3.53,0,0,0-.88-.56,1.67,1.67,0,0,0-1,0,1.8,1.8,0,0,0-.62.31c-.18.14-.47.43-.69.65s-.44.46-.77.74a3.33,3.33,0,0,1-1,.58,9.12,9.12,0,0,1-1.59.38,3,3,0,0,1-1,.06,2.33,2.33,0,0,1-.44-.1,2.69,2.69,0,0,1-.36-.13,1.22,1.22,0,0,0-1.12-.09,1.37,1.37,0,0,0-.42.54,2,2,0,0,0-.14.26l-.18.4-.38.8a3.28,3.28,0,0,1-1.67,1.67,3.33,3.33,0,0,1-.92.26,3.67,3.67,0,0,1-.46,0h-.34l-1.3,0a1.89,1.89,0,0,0-1.63,1,7,7,0,0,0-.39,1.19c-.09.27-.14.58-.29.94a2.93,2.93,0,0,1-.64.92,2.75,2.75,0,0,1-.93.6c-.34.13-.63.19-.91.29a3.59,3.59,0,0,0-1.21.5,1.82,1.82,0,0,0-.66,1.17,2.1,2.1,0,0,0,0,.61c0,.21.06.35.1.63s.11.84.15,1.26a3.14,3.14,0,0,1-1.26,2.85l-1.07.73a2.78,2.78,0,0,1-.49.27,1.45,1.45,0,0,0-.39.3,1.75,1.75,0,0,0-.31.82,2.08,2.08,0,0,0,.12,1.22c.17.48.34.91.54,1.42a3.08,3.08,0,0,1-.13,2.38,3.17,3.17,0,0,1-.32.51l-.3.42-.6.82a2,2,0,0,0-.3,1.39,2.05,2.05,0,0,0,.23.67,5.55,5.55,0,0,0,.48.7c.21.31.4.58.62.93a2.91,2.91,0,0,1,.26,2.43c-.15.4-.34.68-.5,1a3.91,3.91,0,0,0-.47,1.46,2.24,2.24,0,0,0,.79,1.77,8.18,8.18,0,0,0,.87.57l.86.52a4.1,4.1,0,0,1,1,1.12,3.46,3.46,0,0,1,.25.66,2.72,2.72,0,0,1,.1.75c0,.22,0,.47,0,.73s0,.53,0,.8a1.93,1.93,0,0,0,.12.5,2,2,0,0,0,.48.69l.2.2a1.26,1.26,0,0,0,.17.13,1.83,1.83,0,0,0,.31.17l1,.45.27.13a2.21,2.21,0,0,1,.34.18,2.81,2.81,0,0,1,.61.48,3,3,0,0,1,.78,1.27,2.9,2.9,0,0,1,.13.68c0,.18,0,.36,0,.53,0,.35,0,.66.06.92a2.48,2.48,0,0,0,.09.53,1.9,1.9,0,0,0,.82,1.06,2.8,2.8,0,0,0,1.71.37h.91a3.25,3.25,0,0,1,.86.12,4.25,4.25,0,0,1,1,.48c.2.12.24.38.36.55.31.49.48.92.73,1.38a2.16,2.16,0,0,0,.89,1,2.47,2.47,0,0,0,2.23.23l1-.23a2.78,2.78,0,0,1,1.31,0,2.83,2.83,0,0,1,1.19.67c.32.33.58.63.87.95a2.53,2.53,0,0,0,2,1.07,4.28,4.28,0,0,0,2-.76,3.18,3.18,0,0,1,1.64-.56,2.74,2.74,0,0,1,.92.14,12.79,12.79,0,0,1,1.84,1.1,2.54,2.54,0,0,0,1.41.34,2.35,2.35,0,0,0,1.09-.32,2.43,2.43,0,0,0,.66-.54l1.09-1.15a2.45,2.45,0,0,1,1.87-.63c.73.09,1.5.38,2.33.44a2.55,2.55,0,0,0,2.08-1.07c.4-.67.65-1.37,1-2a2.85,2.85,0,0,1,1.38-1.17,3.94,3.94,0,0,1,.66-.2,2.72,2.72,0,0,0,.41-.1,3.54,3.54,0,0,1,1.11-.15A1.26,1.26,0,0,0,111,328a3.31,3.31,0,0,0,.65-.82,4.37,4.37,0,0,0,.38-1.06,8.54,8.54,0,0,1,.53-1.33,2.28,2.28,0,0,1,1.1-1l.5-.27c.23-.11.56-.2.88-.32a3.37,3.37,0,0,0,1.54-.85,2.76,2.76,0,0,0,.44-1.34,1.78,1.78,0,0,0-.06-.73l-.21-.91a5.74,5.74,0,0,1-.16-1,3.05,3.05,0,0,1,.24-1.22,2.6,2.6,0,0,1,.69-.89,2.9,2.9,0,0,1,.62-.41l.59-.28a9.2,9.2,0,0,0,1-.53,1.67,1.67,0,0,0,.5-.53,2.18,2.18,0,0,0,0-1.81l-.63-1.29a3.6,3.6,0,0,1-.35-1.26,2.65,2.65,0,0,1,.16-1.21,3.23,3.23,0,0,1,.61-1,4.5,4.5,0,0,1,.92-.66c.07,0,.64.4.61.46l-.41.61a6.79,6.79,0,0,0-.59.95,1.94,1.94,0,0,0-.11,1,1.86,1.86,0,0,0,.3.71,3.77,3.77,0,0,1,.39.9,6.2,6.2,0,0,1,.28,1.13,2.82,2.82,0,0,1-.33,2,3.14,3.14,0,0,1-.64.67,3.76,3.76,0,0,1-.73.39c-.45.2-.93.38-1.35.58a1.57,1.57,0,0,0-.69.85,2.24,2.24,0,0,0,0,1.21c.07.27.13.56.2.86a6.64,6.64,0,0,1,.21,1,3.27,3.27,0,0,1-.56,2.11,5.79,5.79,0,0,1-2.49,1.87,3,3,0,0,1-.42.11l-.43.11a.87.87,0,0,0-.4.28,1.39,1.39,0,0,0-.28.6c-.09.29-.17.59-.24.89a5.06,5.06,0,0,1-.33,1,3.28,3.28,0,0,1-1.3,1.45,3.64,3.64,0,0,1-.89.39c-.56.14-.92.16-1.34.24l-.61.1a1.28,1.28,0,0,0-.39.12,1.41,1.41,0,0,0-.57.45,1.75,1.75,0,0,0-.18.29l-.21.45c0,.07-.18.35-.42.79a4.6,4.6,0,0,1-.65,1,3.68,3.68,0,0,1-3.17,1.14,3,3,0,0,1-.47-.09l-.35-.09-.71-.19-.36-.1-.22,0a1.36,1.36,0,0,0-.45,0,1.56,1.56,0,0,0-.86.48l-.56.57-.28.28-.14.14-.2.18a3.46,3.46,0,0,1-1.91.83,3.4,3.4,0,0,1-1.93-.35c-.51-.28-.81-.48-1.19-.7a1.54,1.54,0,0,0-1.95-.13,4.87,4.87,0,0,1-.7.5l-.58.35a3.45,3.45,0,0,1-3.43-.05,3,3,0,0,1-.54-.4,2.61,2.61,0,0,1-.24-.23L86,334.7l-.65-.74a2.51,2.51,0,0,0-.53-.52,1.76,1.76,0,0,0-1.16-.29c-.19,0-.5.09-.72.13-.49.08-.82.16-1.22.21a4.85,4.85,0,0,1-.59,0,3.27,3.27,0,0,1-2-.68,3.48,3.48,0,0,1-.74-.79l-.46-.75-.43-.7a1.71,1.71,0,0,0-.35-.36,1.52,1.52,0,0,0-.9-.3c-.34,0-.88,0-1.31,0a4.77,4.77,0,0,1-.87-.11,3.45,3.45,0,0,1-.9-.39,3.38,3.38,0,0,1-.82-.73,3.47,3.47,0,0,1-.71-1.64c0-.51-.09-1-.13-1.51a1.63,1.63,0,0,0-.24-.88,2.83,2.83,0,0,0-.59-.66,2.6,2.6,0,0,0-.38-.27l-.5-.26-1-.53a3.56,3.56,0,0,1-.92-.75,2.85,2.85,0,0,1-.64-1.17,5.07,5.07,0,0,1-.1-1.33,7,7,0,0,0-.08-1.25,1.54,1.54,0,0,0-.56-.85,10.59,10.59,0,0,0-1.17-.71,8.75,8.75,0,0,1-.88-.58,3.21,3.21,0,0,1-.91-1.07,3.36,3.36,0,0,1-.34-2.31,3.73,3.73,0,0,1,.23-.73l.12-.24c.11-.26.22-.53.32-.79l.15-.38a1.29,1.29,0,0,0,.08-.26,3.53,3.53,0,0,0,.05-1.14,1.22,1.22,0,0,0-.08-.3c0-.11-.15-.27-.23-.41-.19-.3-.4-.6-.66-1a3.21,3.21,0,0,1-.35-3,3.11,3.11,0,0,1,.4-.69c.13-.18.25-.36.38-.53a7.25,7.25,0,0,0,.6-.92,2,2,0,0,0,.17-1.11,2.23,2.23,0,0,0-.13-.54l-.27-.7-.28-.71a3.14,3.14,0,0,1-.19-.92,3.24,3.24,0,0,1,.44-1.8,3.42,3.42,0,0,1,.6-.71,6.52,6.52,0,0,1,.67-.49c.33-.22.74-.45,1-.62a2,2,0,0,0,.73-.75,1.63,1.63,0,0,0,.08-.44,4.92,4.92,0,0,0,0-1.55,3.89,3.89,0,0,1,0-1.74,3.51,3.51,0,0,1,.5-1.07,3,3,0,0,1,1-.89c.37-.19.59-.27.89-.4l.82-.35a1.9,1.9,0,0,0,.88-.87c.08-.16.19-.27.3-.47a2.72,2.72,0,0,0,.29-.71c.09-.34.13-.65.26-1.07a3.05,3.05,0,0,1,.62-1.06,2.86,2.86,0,0,1,2.18-1c.55,0,1.14.09,1.65.14a2,2,0,0,0,1.45-.55,3.38,3.38,0,0,0,.67-1.4c.09-.26.15-.5.27-.77a1.92,1.92,0,0,1,1.89-1.23,5.3,5.3,0,0,1,1.35.2c.5.07,1,.16,1.51.2a2.16,2.16,0,0,0,1.3-.37,3.93,3.93,0,0,0,.9-1l.45-.63a3.57,3.57,0,0,1,.67-.68,1.58,1.58,0,0,1,.7-.24,3.13,3.13,0,0,1,2.68.67,17.53,17.53,0,0,0,1.43,1,2.06,2.06,0,0,0,1.7.05c.53-.26,1-.6,1.53-.91a2.69,2.69,0,0,1,1.78-.42,2.77,2.77,0,0,1,1.67.84l.65.62a5.18,5.18,0,0,0,.63.56,2.24,2.24,0,0,0,1.67.33l1.31-.34a2.8,2.8,0,0,1,1.13-.13,3,3,0,0,1,2.38,1.71l.61,1.21a2.21,2.21,0,0,0,.81.9,2,2,0,0,0,1.15.32h1.36a3.1,3.1,0,0,1,2.72,1.44,2.49,2.49,0,0,1,.39,1.2,9.81,9.81,0,0,1,.08,1.09,2.2,2.2,0,0,0,.74,1.78,6.88,6.88,0,0,0,2.17.88,2.68,2.68,0,0,1,1.65,1.77,4,4,0,0,1,.11.77v.7a6.56,6.56,0,0,0,.1,1.26,2.09,2.09,0,0,0,.5.87,3.47,3.47,0,0,0,.37.3l.56.37.73.54a3.16,3.16,0,0,1,1.17,3.09c-.38,1.47-1.28,2.26-1,3.28a1.9,1.9,0,0,0,.55,1l.95,1a3.29,3.29,0,0,1,.64,3.34,1.13,1.13,0,0,1-.47.52s-.28-.11-.43-.17-.22-.27-.22-.32a.39.39,0,0,1,0-.27,2.34,2.34,0,0,0,.14-1.56,2.3,2.3,0,0,0-.32-.69c-.14-.2-.35-.4-.55-.63l-.62-.67a3.13,3.13,0,0,1-.66-3.28Z"/><path class="cls-19" d="M115.38,303.75v-.4c0-.13,0-.26,0-.39,0-.53-.12-1.06-.21-1.58a22.69,22.69,0,0,0-3.23-7.78,23.12,23.12,0,0,0-5.78-6.05,23.42,23.42,0,0,0-7.92-3.77,26.23,26.23,0,0,0-8.37-.63l-1.8.2c-.6.12-1.19.26-1.78.39l-.44.11-.43.14-.87.3-.85.31-.83.39a20.06,20.06,0,0,0-3.13,1.84L78.28,288c-.46.4-.86.85-1.28,1.28A26.33,26.33,0,0,0,71.58,298c-.14.41-.31.8-.43,1.21l-.35,1.24-.17.63a6.38,6.38,0,0,0-.12.63L70.28,303a9.53,9.53,0,0,0-.15,1.27L70,305.5v1.32c0,.43,0,.87,0,1.3a22,22,0,0,0,3.23,9.82,12.53,12.53,0,0,0,.94,1.35,11.32,11.32,0,0,0,1,1.28l1.12,1.19c.4.38.81.73,1.21,1.1a22.71,22.71,0,0,0,5.49,3.54v0a11.57,11.57,0,0,0,1.64.63,12.36,12.36,0,0,0,1.67.51l1.71.39,1.76.22.44.06h.42l.84,0,.85,0h.46l.44,0c.57,0,1.15-.06,1.73-.12l1.72-.27a23,23,0,0,0,8.63-3.52,22.7,22.7,0,0,0,6.52-6.72,22,22,0,0,0,3.39-10.21c0-.35.09-2.64.09-2.87Zm-1.73,2.56a11.62,11.62,0,0,0-.16,1.56c-.13.77-.21,1.54-.37,2.31l-.29,1.14a8.63,8.63,0,0,1-.33,1.13,19,19,0,0,1-.88,2.2l-.5,1.06c-.18.36-.4.68-.6,1a21.8,21.8,0,0,1-6.46,6.82c-.5.31-1.08.7-1.76,1.07l-1.08.53-.58.28-.61.23-1.27.46c-.43.15-.88.24-1.33.36a20,20,0,0,1-2.7.5,3.7,3.7,0,0,1-.66.07l-.65,0-1.22.06L90,327c-1.23-.2-2.06-.3-2.21-.34l-1.28-.28-.63-.14c-.21-.06-.41-.14-.62-.22-.49-.2-1-.41-1.45-.65s-.91-.53-1.39-.77a20.8,20.8,0,0,1-9.7-10.52,22.1,22.1,0,0,1-1.53-6.6l0-1.6v-.36l0-.42.06-.82.06-.83.14-.77.14-.77a5.19,5.19,0,0,1,.17-.76l.43-1.53c.15-.51.38-1,.56-1.48.1-.25.18-.5.3-.74l.36-.7a12.41,12.41,0,0,1,.75-1.39c.3-.47.56-1,.84-1.46s.62-.94.94-1.41a21.36,21.36,0,0,1,3.8-3.8,26.51,26.51,0,0,1,2.35-1.7l1.29-.68A5.65,5.65,0,0,1,84,286l.69-.24.78-.26.39-.13.41-.09,1.6-.35a25.61,25.61,0,0,1,3.26-.28l.82,0h.37l.42,0,1.7.09c1.05.17,2.11.25,3.18.51A19.43,19.43,0,0,1,105,288.6a24.58,24.58,0,0,1,2.45,2l1.09,1.14.28.29.24.31.5.63.49.62c.16.21.29.44.44.66.28.45.59.89.84,1.35L112,297c.13.23.21.48.32.73l.29.74a8.45,8.45,0,0,1,.43,1.19c.07.22.12.44.17.66s.16.69.22,1l.13,1.06.11,1.06,0,1.06a1.71,1.71,0,0,0,.09.6C113.73,305.73,113.67,306.2,113.65,306.31Z"/><g id="Check_Mark_1-2" data-name="Check Mark 1"><polygon class="cls-8" points="101.18 291.88 87.13 306.09 81.75 300.7 76.18 306.28 87.13 317.23 87.23 317.14 92.71 311.66 106.75 297.46 101.18 291.88"/></g><path class="cls-20" d="M91,322.28l9-3.15,22.13-22.86h0l2.34-2.42a2.12,2.12,0,0,0,0-3l-3-3a2.13,2.13,0,0,0-3,.05L116,290.37h0L93.85,313.23Z"/><path class="cls-8" d="M109.38,303.49l9.67-10.1a.48.48,0,0,0,0-.68l-.68-.68a.49.49,0,0,0-.69,0L108,302.13Z"/></g></g></svg>